<?xml version="1.0" standalone="no"?>
<!DOCTYPE svg PUBLIC "-//W3C//DTD SVG 20010904//EN"
 "http://www.w3.org/TR/2001/REC-SVG-20010904/DTD/svg10.dtd">
<svg version="1.0" xmlns="http://www.w3.org/2000/svg"
 width="400.000000pt" height="400.000000pt" viewBox="0 0 400.000000 400.000000"
 preserveAspectRatio="xMidYMid meet">
<metadata>
Created by potrace 1.14, written by Peter Selinger 2001-2017
</metadata>
<g transform="translate(0.000000,400.000000) scale(0.100000,-0.100000)"
fill="#000000" stroke="none">
<path d="M1221 2852 l-164 -247 -356 0 c-196 0 -366 -2 -378 -4 -21 -3 -40
-44 -123 -263 l-18 -48 164 0 c153 0 164 -1 154 -17 -5 -10 -29 -61 -53 -113
-71 -153 -96 -206 -174 -369 -40 -84 -73 -155 -73 -157 0 -2 -22 -49 -50 -105
-27 -56 -50 -105 -50 -110 0 -4 144 -7 320 -7 176 1 323 -1 325 -4 5 -5 -13
-48 -83 -198 -95 -206 -119 -268 -110 -283 5 -10 13 -17 18 -17 4 0 40 44 79
98 40 53 77 104 84 112 7 8 57 77 112 153 l100 137 45 1 c25 0 258 1 518 1
430 0 472 2 473 17 1 21 1 226 0 267 l-1 31 -165 -1 -165 -1 0 67 0 67 158 3
157 3 0 145 0 145 -157 3 -158 3 0 64 0 65 163 0 162 0 -2 118 c-1 64 -2 135
-2 157 l-1 40 -359 -1 -360 -1 28 76 c16 42 54 145 85 229 55 146 63 192 33
192 -7 0 -86 -112 -176 -248z m54 -39 c-4 -10 -60 -157 -125 -328 -73 -194
-114 -316 -109 -325 6 -13 36 -15 192 -15 123 0 183 -3 179 -10 -11 -19 -276
-380 -282 -385 -3 -3 -17 -21 -30 -40 -25 -36 -76 -106 -269 -367 -105 -142
-135 -179 -113 -135 6 9 24 49 42 87 17 39 40 88 51 110 88 189 175 392 172
402 -4 9 -56 13 -193 15 l-188 3 334 503 c184 276 337 502 340 502 3 0 3 -8
-1 -17z"/>
<path d="M3470 2626 c-3 -3 -21 -8 -40 -11 -54 -9 -132 -51 -175 -92 -101
-101 -121 -271 -47 -411 25 -47 100 -127 172 -182 120 -93 138 -122 107 -164
-20 -28 -110 -27 -266 4 -29 5 -55 10 -56 10 -1 0 -2 -80 -1 -177 l1 -178 50
-13 c116 -30 342 -36 430 -12 172 46 269 166 281 345 2 33 1 67 -3 75 -3 8 -7
17 -8 20 -32 120 -83 189 -241 328 -53 46 -71 68 -67 82 6 24 32 30 118 26
l70 -2 0 165 0 165 -30 8 c-35 10 -288 22 -295 14z"/>
<path d="M2081 2590 c-9 -20 -6 -1056 3 -1095 4 -18 20 -39 42 -54 l35 -24
392 0 c216 0 409 3 429 7 27 5 44 16 60 40 l23 33 -1 534 c-1 294 -2 543 -3
554 -1 19 -8 20 -191 20 l-190 0 0 -400 c0 -226 -4 -406 -10 -415 -13 -20
-187 -20 -201 0 -5 9 -9 189 -9 413 0 218 -3 397 -7 398 -5 0 -88 1 -186 2
-151 2 -180 0 -186 -13z"/>
</g>
</svg>
